# xmcd CD database file
#
# Track frame offsets:
#	150
#	13544
#	26054
#	43299
#	62098
#	96091
#	118043
#	133511
#	147444
#	158849
#	185569
#	196987
#
# Disc length: 2804 seconds
#
# Revision: 0
# Processed by: cddbd v1.5.2PL0 Copyright (c) Steve Scherf et al.
# Submitted via: CDex 1.51
#
DISCID=aa0af20c
DTITLE=Shout Sister Shout (Steppin' In It With Rachael Davis) - Shout Sister Shout
DYEAR=2007
DGENRE=Jazz
TTITLE0=Slow Down
TTITLE1=Shout Sister Shout
TTITLE2=Don't Let The Sun Catch You Crying
TTITLE3=No Sale
TTITLE4=Moonlight in Vermont
TTITLE5=It's a Sin to Tell a Lie
TTITLE6=Carolina Moon
TTITLE7=Miss Otis Regrets
TTITLE8=Never Missed My Baby
TTITLE9=God Bless The Child
TTITLE10=It's Only A Paper Moon
TTITLE11=Don't Let Your Eyes Go Shopping For Your Heart
EXTD=YEAR: 2007
EXTT0=
EXTT1=
EXTT2=
EXTT3=
EXTT4=
EXTT5=
EXTT6=
EXTT7=
EXTT8=
EXTT9=
EXTT10=
EXTT11=
PLAYORDER=
